HIERARCHY
ROOT Hips
{
  OFFSET 5.84602e-005 68.8428 3.50346
  CHANNELS 6 Xposition Yposition Zposition Zrotation Xrotation Yrotation
  JOINT Spine
  {
    OFFSET 0 8.597 -4.6522
    CHANNELS 3 Zrotation Xrotation Yrotation
    JOINT Spine1
    {
      OFFSET 0 7.8454 0.4098
      CHANNELS 3 Zrotation Xrotation Yrotation
      JOINT Spine2
      {
        OFFSET 0 9.7078 -2.1609
        CHANNELS 3 Zrotation Xrotation Yrotation
        JOINT Neck
        {
          OFFSET 0 21.8761 -0.4549
          CHANNELS 3 Zrotation Xrotation Yrotation
          JOINT Head
          {
            OFFSET 0 12.3537 3.3602
            CHANNELS 3 Zrotation Xrotation Yrotation
            End Site
            {
              OFFSET 0.0001 18.9506 0.5657
            }
          }
        }
        JOINT LeftShoulder
        {
          OFFSET 2.2086 21.1115 7.2329
          CHANNELS 3 Zrotation Xrotation Yrotation
          JOINT LeftArm
          {
            OFFSET 13.1193 3.0282 -4.8998
            CHANNELS 3 Zrotation Xrotation Yrotation
            JOINT LeftForeArm
            {
              OFFSET 27.4081 -0.0973053 -0.2375
              CHANNELS 3 Zrotation Xrotation Yrotation
              JOINT LeftHand
              {
                OFFSET 22.8641 0.0662994 -0.1369
                CHANNELS 3 Zrotation Xrotation Yrotation
                JOINT LeftHandIndex1
                {
                  OFFSET 8.8614 0.775009 2.4612
                  CHANNELS 3 Zrotation Xrotation Yrotation
                  JOINT LeftHandIndex2
                  {
                    OFFSET 3.3146 -0.808304 0.5841
                    CHANNELS 3 Zrotation Xrotation Yrotation
                    JOINT LeftHandIndex3
                    {
                      OFFSET 2.2628 -0.552002 0.3989
                      CHANNELS 3 Zrotation Xrotation Yrotation
                      End Site
                      {
                        OFFSET 1.6102 -0.4807 0.2612
                      }
                    }
                  }
                }
                JOINT LeftHandMiddle1
                {
                  OFFSET 8.9937 0.895004 0.2143
                  CHANNELS 3 Zrotation Xrotation Yrotation
                  JOINT LeftHandMiddle2
                  {
                    OFFSET 4.0984 0.0113983 -0.0242
                    CHANNELS 3 Zrotation Xrotation Yrotation
                    JOINT LeftHandMiddle3
                    {
                      OFFSET 2.2716 0.00689697 -0.0138001
                      CHANNELS 3 Zrotation Xrotation Yrotation
                      End Site
                      {
                        OFFSET 2.0404 -0.1441 0.0027
                      }
                    }
                  }
                }
                JOINT LeftHandRing1
                {
                  OFFSET 8.5234 0.597198 -2.0164
                  CHANNELS 3 Zrotation Xrotation Yrotation
                  JOINT LeftHandRing2
                  {
                    OFFSET 3.7188 -0.188293 -0.2328
                    CHANNELS 3 Zrotation Xrotation Yrotation
                    JOINT LeftHandRing3
                    {
                      OFFSET 2.1191 -0.106598 -0.1332
                      CHANNELS 3 Zrotation Xrotation Yrotation
                      End Site
                      {
                        OFFSET 1.8737 -0.2304 -0.0886
                      }
                    }
                  }
                }
                JOINT LeftHandPinky1
                {
                  OFFSET 7.9094 -0.601089 -3.4825
                  CHANNELS 3 Zrotation Xrotation Yrotation
                  JOINT LeftHandPinky2
                  {
                    OFFSET 2.2874 -0.477005 -0.6314
                    CHANNELS 3 Zrotation Xrotation Yrotation
                    JOINT LeftHandPinky3
                    {
                      OFFSET 1.6774 -0.349396 -0.4633
                      CHANNELS 3 Zrotation Xrotation Yrotation
                      End Site
                      {
                        OFFSET 1.4888 -0.4091 -0.3416
                      }
                    }
                  }
                }
                JOINT LeftHandThumb1
                {
                  OFFSET 1.833 -1.3875 1.3896
                  CHANNELS 3 Zrotation Xrotation Yrotation
                  JOINT LeftHandThumb2
                  {
                    OFFSET 3.4129 -1.121 2.5732
                    CHANNELS 3 Zrotation Xrotation Yrotation
                    JOINT LeftHandThumb3
                    {
                      OFFSET 2.2474 -0.804199 1.6192
                      CHANNELS 3 Zrotation Xrotation Yrotation
                      End Site
                      {
                        OFFSET 1.6527 -0.5689 1.1317
                      }
                    }
                  }
                }
              }
            }
          }
        }
        JOINT RightShoulder
        {
          OFFSET -2.2086 21.1115 7.2329
          CHANNELS 3 Zrotation Xrotation Yrotation
          JOINT RightArm
          {
            OFFSET -13.1216 3.0287 -4.9007
            CHANNELS 3 Zrotation Xrotation Yrotation
            JOINT RightForeArm
            {
              OFFSET -27.4081 -0.0973053 -0.2375
              CHANNELS 3 Zrotation Xrotation Yrotation
              JOINT RightHand
              {
                OFFSET -22.8641 0.0664063 -0.1369
                CHANNELS 3 Zrotation Xrotation Yrotation
                JOINT RightHandIndex1
                {
                  OFFSET -8.8614 0.774994 2.4612
                  CHANNELS 3 Zrotation Xrotation Yrotation
                  JOINT RightHandIndex2
                  {
                    OFFSET -3.3146 -0.808304 0.5841
                    CHANNELS 3 Zrotation Xrotation Yrotation
                    JOINT RightHandIndex3
                    {
                      OFFSET -2.2628 -0.552002 0.3989
                      CHANNELS 3 Zrotation Xrotation Yrotation
                      End Site
                      {
                        OFFSET -1.6102 -0.4807 0.2612
                      }
                    }
                  }
                }
                JOINT RightHandMiddle1
                {
                  OFFSET -8.9937 0.894989 0.2143
                  CHANNELS 3 Zrotation Xrotation Yrotation
                  JOINT RightHandMiddle2
                  {
                    OFFSET -4.0984 0.0113983 -0.0242
                    CHANNELS 3 Zrotation Xrotation Yrotation
                    JOINT RightHandMiddle3
                    {
                      OFFSET -2.2716 0.00691223 -0.0138001
                      CHANNELS 3 Zrotation Xrotation Yrotation
                      End Site
                      {
                        OFFSET -2.0404 -0.1441 0.0027
                      }
                    }
                  }
                }
                JOINT RightHandRing1
                {
                  OFFSET -8.5234 0.597198 -2.0164
                  CHANNELS 3 Zrotation Xrotation Yrotation
                  JOINT RightHandRing2
                  {
                    OFFSET -3.7188 -0.188309 -0.2328
                    CHANNELS 3 Zrotation Xrotation Yrotation
                    JOINT RightHandRing3
                    {
                      OFFSET -2.1191 -0.106598 -0.1332
                      CHANNELS 3 Zrotation Xrotation Yrotation
                      End Site
                      {
                        OFFSET -1.8737 -0.2304 -0.0886
                      }
                    }
                  }
                }
                JOINT RightHandPinky1
                {
                  OFFSET -7.9094 -0.601105 -3.4825
                  CHANNELS 3 Zrotation Xrotation Yrotation
                  JOINT RightHandPinky2
                  {
                    OFFSET -2.2874 -0.477005 -0.6314
                    CHANNELS 3 Zrotation Xrotation Yrotation
                    JOINT RightHandPinky3
                    {
                      OFFSET -1.6774 -0.349396 -0.4633
                      CHANNELS 3 Zrotation Xrotation Yrotation
                      End Site
                      {
                        OFFSET -1.4888 -0.4091 -0.3416
                      }
                    }
                  }
                }
                JOINT RightHandThumb1
                {
                  OFFSET -1.833 -1.38751 1.3896
                  CHANNELS 3 Zrotation Xrotation Yrotation
                  JOINT RightHandThumb2
                  {
                    OFFSET -3.41299 -1.12099 2.5732
                    CHANNELS 3 Zrotation Xrotation Yrotation
                    JOINT RightHandThumb3
                    {
                      OFFSET -2.24741 -0.804108 1.6192
                      CHANNELS 3 Zrotation Xrotation Yrotation
                      End Site
                      {
                        OFFSET -1.6527 -0.5689 1.1317
                      }
                    }
                  }
                }
              }
            }
          }
        }
      }
    }
  }
  JOINT RightUpLeg
  {
    OFFSET -9.1966 3.8861 -0.7581
    CHANNELS 3 Zrotation Xrotation Yrotation
    JOINT RightLeg
    {
      OFFSET -0.7359 -41.0265 0
      CHANNELS 3 Zrotation Xrotation Yrotation
      JOINT RightFoot
      {
        OFFSET 0 -40.2855 0
        CHANNELS 3 Zrotation Xrotation Yrotation
        JOINT RightToeBase
        {
          OFFSET 0 -5.6122 11.7359
          CHANNELS 3 Zrotation Xrotation Yrotation
          End Site
          {
            OFFSET 0 0 7.8731
          }
        }
      }
    }
  }
  JOINT LeftUpLeg
  {
    OFFSET 9.1965 3.8864 -0.7581
    CHANNELS 3 Zrotation Xrotation Yrotation
    JOINT LeftLeg
    {
      OFFSET 0.7359 -41.0268 0
      CHANNELS 3 Zrotation Xrotation Yrotation
      JOINT LeftFoot
      {
        OFFSET 0 -40.2855 0
        CHANNELS 3 Zrotation Xrotation Yrotation
        JOINT LeftToeBase
        {
          OFFSET 0 -5.6122 11.7359
          CHANNELS 3 Zrotation Xrotation Yrotation
          End Site
          {
            OFFSET 0 0 7.8731
          }
        }
      }
    }
  }
}
MOTION
Frames:	5
Frame Time:	0.0333333
-22.8492 25.3778 46.2901 0.0115509 6.88681e-015 168.958 1.51191 2.45982 -0.349934 3.04305 4.90951 -0.765834 3.04305 4.9095 -0.765832 -0.354128 15.1772 0.0985774 -0.340782 -31.9621 -0.203423 -17.1532 -22.0366 -38.9217 -90.6582 25.9553 24.8251 14.4921 21.537 -30.7369 -19.2484 5.79995 -24.8323 -1.16547e-006 -4.60587e-008 3.16446e-006 -3.23085e-006 1.40442e-006 9.66302e-007 -1.16547e-006 -4.60588e-008 3.16446e-006 -1.16547e-006 -4.60587e-008 3.16446e-006 -0.0145673 -8.82403e-005 4.66117e-006 -1.16524e-006 -4.64596e-008 3.16445e-006 -1.16547e-006 -4.60587e-008 3.16446e-006 -0.0187992 -0.00118546 6.2644e-005 -1.16514e-006 -4.65587e-008 3.16446e-006 -1.16547e-006 -4.60587e-008 3.16446e-006 -0.0122302 -0.00323727 0.00067534 -1.16519e-006 -4.6339e-008 3.16447e-006 -1.16547e-006 -4.60587e-008 3.16446e-006 -3.23085e-006 1.40442e-006 9.66302e-007 -1.16547e-006 -4.60588e-008 3.16446e-006 6.42789 -14.7141 -1.66096 8.79978 -38.944 29.8597 -29.4485 -5.62826 75.7757 -1.54103 -26.8606 -4.45292 1.59028e-014 1.98785e-015 3.97569e-016 3.18055e-015 1.98785e-015 -7.95139e-016 1.27222e-014 7.95139e-016 -0 1.59028e-014 1.98785e-015 3.97569e-016 0.0150141 -8.76212e-005 1.92005e-006 -9.54166e-015 1.19271e-015 7.95139e-016 1.59028e-014 1.98785e-015 3.97569e-016 0.0189802 -0.0011913 -6.14781e-005 -1.59028e-014 1.19271e-015 1.98785e-015 1.59028e-014 1.98785e-015 3.97569e-016 0.0122489 -0.00324054 -0.000673512 -8.27607e-032 -1.19271e-015 -3.97569e-015 1.59028e-014 1.98785e-015 3.97569e-016 3.18055e-015 1.98785e-015 -7.95139e-016 1.27222e-014 7.95139e-016 -0 9.49351 -10.2557 -10.845 -142.128 62.5749 125.508 -7.03822 53.5047 -6.31924 7.8111e-007 -1.58113e-006 7.87813e-007 8.0789 -9.62606 1.24317 164.261 66.573 -159.639 15.5249 52.1244 -8.57088 -3.35189e-007 -5.07846e-007 3.7161e-007 
-22.4793 25.3734 46.0425 0.0115509 6.88681e-015 168.958 1.56546 2.39882 -0.353791 3.14986 4.78702 -0.774108 3.14986 4.78703 -0.774118 -0.384575 15.6104 0.108444 -0.367391 -31.5416 -0.218283 -16.1619 -21.9682 -38.5023 -91.3163 25.7219 25.1121 14.7053 21.4091 -31.5017 -19.0966 5.90578 -25.0572 -1.59028e-015 -4.77083e-015 5.1684e-015 1.98626e-031 -1.59028e-015 7.15625e-015 3.18055e-015 -1.59028e-015 -5.56597e-015 -1.59028e-015 -4.77083e-015 5.1684e-015 -0.0146176 -8.4685e-005 8.69295e-007 -7.72434e-031 1.59028e-014 2.78299e-015 -1.59028e-015 -4.77083e-015 5.1684e-015 -0.0187702 -0.00117915 5.9246e-005 1.59028e-015 1.59028e-015 5.1684e-015 -1.59028e-015 -4.77083e-015 5.1684e-015 -0.0122619 -0.00325138 0.000672348 -1.59028e-015 -3.18055e-015 4.77083e-015 -1.59028e-015 -4.77083e-015 5.1684e-015 1.98626e-031 -1.59028e-015 7.15625e-015 3.18055e-015 -1.59028e-015 -5.56597e-015 5.47292 -11.416 1.41647 10.1495 -43.4954 30.613 -28.9631 -2.8149 75.9074 -2.23386 -26.8396 -4.3918 -3.18055e-015 -1.59028e-015 2.48481e-015 -6.36111e-015 -3.97569e-016 2.78299e-015 -3.18055e-015 -5.96354e-016 1.98785e-015 -3.18055e-015 -1.59028e-015 2.48481e-015 0.0149955 -9.5457e-005 -1.66304e-006 -1.52884e-006 -1.74354e-006 1.80137e-008 -3.18055e-015 -1.59028e-015 2.48481e-015 0.0190412 -0.00119564 -5.94647e-005 -1.52927e-006 -1.74343e-006 1.80961e-008 -3.18055e-015 -1.59028e-015 2.48481e-015 0.0121396 -0.00321673 -0.000664088 6.36111e-015 1.98785e-016 -3.8763e-015 -3.18055e-015 -1.59028e-015 2.48481e-015 -6.36111e-015 -3.97569e-016 2.78299e-015 -3.18055e-015 -5.96354e-016 1.98785e-015 10.5093 -9.76137 -11.2875 -140.597 62.0389 122.9 -6.82493 53.4865 -6.48478 1.85599e-007 -1.65299e-006 5.47923e-008 8.43265 -9.23934 1.0633 164.233 66.6228 -159.615 15.8136 51.9406 -9.08458 1.46539e-007 4.18073e-008 1.67178e-006 
-22.1094 25.369 45.7949 0.0115509 6.88681e-015 168.958 1.61898 2.3378 -0.357605 3.25661 4.66451 -0.782164 3.25661 4.66451 -0.782167 -0.41509 16.0441 0.118547 -0.393754 -31.1212 -0.232848 -15.1719 -21.8931 -38.0847 -91.9718 25.4856 25.3955 14.9166 21.2786 -32.2659 -18.9443 6.01099 -25.2823 -1.59028e-015 -3.18055e-015 -1.98785e-015 1.59028e-015 -3.18055e-015 -3.97569e-016 3.18055e-015 0 -2.78299e-015 -1.59028e-015 -3.18055e-015 -1.98785e-015 -0.0145859 -8.90588e-005 -5.88306e-006 -1.59028e-015 -1.59028e-015 -7.95139e-015 -1.59028e-015 -3.18055e-015 -1.98785e-015 -0.0188173 -0.00117972 6.32868e-005 -8.04193e-007 -3.47599e-007 2.08129e-006 -1.59028e-015 -3.18055e-015 -1.98785e-015 -0.0122249 -0.00323972 0.000669743 -3.18055e-015 1.59028e-015 3.97569e-015 -1.59028e-015 -3.18055e-015 -1.98785e-015 1.59028e-015 -3.18055e-015 -3.97569e-016 3.18055e-015 0 -2.78299e-015 4.32368 -8.1777 4.5047 11.6949 -48.0056 31.5505 -28.4186 -0.0378477 76.0177 -2.9265 -26.8194 -4.33039 2.93111e-032 1.68967e-015 -9.93923e-016 3.3794e-032 1.39149e-015 -1.39149e-015 -1.8966e-031 -2.18663e-015 -4.96962e-015 2.93111e-032 1.68967e-015 -9.93923e-016 0.0150433 -9.04902e-005 -7.48466e-007 3.18055e-015 2.38542e-015 6.4605e-015 2.93111e-032 1.68967e-015 -9.93923e-016 0.0190088 -0.00118702 -6.11438e-005 -1.27222e-014 -1.63003e-014 -1.2921e-015 2.93111e-032 1.68967e-015 -9.93923e-016 0.0123193 -0.00325949 -0.000682423 4.13804e-033 5.96354e-016 -3.97569e-016 2.93111e-032 1.68967e-015 -9.93923e-016 3.3794e-032 1.39149e-015 -1.39149e-015 -1.8966e-031 -2.18663e-015 -4.96962e-015 11.527 -9.27343 -11.7387 -139.145 61.4714 120.37 -6.6095 53.4707 -6.65192 -2.88606e-009 2.65343e-007 7.94964e-008 8.78704 -8.85473 0.881223 164.206 66.6715 -159.593 16.0981 51.7552 -9.59445 -6.77956e-008 -1.70213e-006 -6.15202e-008 
-21.7395 25.3646 45.5474 0.0115509 6.88681e-015 168.958 1.67248 2.27676 -0.361298 3.36326 4.54195 -0.789991 3.36326 4.54194 -0.78998 -0.44583 16.4777 0.12895 -0.419871 -30.7007 -0.24712 -14.1834 -21.8112 -37.6688 -92.6245 25.2464 25.6753 15.1259 21.1453 -33.0294 -18.7916 6.11563 -25.5077 1.59028e-015 1.59028e-015 3.18055e-015 -1.59028e-015 4.77083e-015 -4.37326e-015 1.59028e-015 0 1.98785e-015 1.59028e-015 1.59028e-015 3.18055e-015 -0.0146009 -8.90083e-005 1.9217e-006 -0 0 5.56597e-015 1.59028e-015 1.59028e-015 3.18055e-015 -0.0187607 -0.00117624 5.52459e-005 -1.32417e-031 3.18055e-015 2.38542e-015 1.59028e-015 1.59028e-015 3.18055e-015 -0.0122746 -0.00324587 0.000671911 -1.59028e-015 1.59028e-015 8.34896e-015 1.59028e-015 1.59028e-015 3.18055e-015 -1.59028e-015 4.77083e-015 -4.37326e-015 1.59028e-015 0 1.98785e-015 2.97943 -5.03238 7.62811 13.5134 -52.4838 32.8495 -27.9072 2.79037 76.1122 -3.61889 -26.7997 -4.26875 -4.20683e-006 -1.28319e-007 5.22667e-007 4.20683e-006 1.28318e-007 -5.22667e-007 -4.20683e-006 -1.28319e-007 5.22667e-007 -4.20683e-006 -1.28319e-007 5.22667e-007 0.0150048 -9.3564e-005 -8.58547e-006 -4.20713e-006 -1.28249e-007 5.22688e-007 -4.20683e-006 -1.28319e-007 5.22667e-007 0.0189909 -0.00118857 -6.23185e-005 -4.20721e-006 -1.2821e-007 5.22733e-007 -4.20683e-006 -1.28319e-007 5.22667e-007 0.0122766 -0.00325926 -0.000670561 -4.20706e-006 -1.28221e-007 5.22814e-007 -4.20683e-006 -1.28319e-007 5.22667e-007 4.20683e-006 1.28318e-007 -5.22667e-007 -4.20683e-006 -1.28319e-007 5.22667e-007 12.5466 -8.79138 -12.1986 -137.771 60.8749 117.917 -6.39209 53.457 -6.82062 -2.24743e-007 -1.70329e-006 1.01814e-006 9.14224 -8.47051 0.696993 164.178 66.7212 -159.569 16.3787 51.5686 -10.1007 1.05027e-006 -1.81137e-006 3.1165e-006 
-21.3696 25.3601 45.2999 0.0115509 6.88681e-015 168.958 1.72595 2.21573 -0.365003 3.46987 4.41939 -0.797591 3.46988 4.41939 -0.797588 -0.476704 16.9115 0.139606 -0.445761 -30.2803 -0.261115 -13.1967 -21.7229 -37.255 -93.2746 25.0044 25.9515 15.3333 21.0094 -33.7921 -18.6384 6.21965 -25.7335 -3.18055e-015 0 2.78299e-015 -3.57351e-006 1.703e-006 2.04301e-006 2.40624e-006 -1.73665e-006 1.1267e-006 -3.18055e-015 0 2.78299e-015 -0.014609 -8.71955e-005 6.13361e-006 3.23599e-006 -1.40356e-006 -9.68201e-007 -3.18055e-015 0 2.78299e-015 -0.0187001 -0.00117138 5.99718e-005 3.23594e-006 -1.40354e-006 -9.68281e-007 -3.18055e-015 0 2.78299e-015 -0.012232 -0.0032331 0.000678921 3.23598e-006 -1.40363e-006 -9.68254e-007 -3.18055e-015 0 2.78299e-015 -3.57351e-006 1.703e-006 2.04301e-006 2.40624e-006 -1.73665e-006 1.1267e-006 1.0606 -2.24911 10.6193 15.9575 -56.9691 35.3176 -27.3978 5.6162 76.1665 -4.31097 -26.7808 -4.20687 -1.27222e-014 0 -7.95139e-016 -3.18055e-015 1.59028e-015 -7.95139e-016 1.10348e-032 7.95139e-016 -7.95139e-016 -1.27222e-014 0 -7.95139e-016 0.014926 -9.42549e-005 -3.55768e-006 -1.27222e-014 -1.59028e-015 2.78299e-015 -1.27222e-014 0 -7.95139e-016 0.0190579 -0.00119348 -5.5493e-005 -9.54166e-015 2.38542e-015 3.97569e-016 -1.27222e-014 0 -7.95139e-016 0.0122091 -0.00322545 -0.000674141 3.18055e-015 3.97569e-015 -1.59028e-015 -1.27222e-014 0 -7.95139e-016 -3.18055e-015 1.59028e-015 -7.95139e-016 1.10348e-032 7.95139e-016 -7.95139e-016 13.5678 -8.31543 -12.6669 -136.475 60.2518 115.54 -6.17308 53.4459 -6.99059 5.84084e-007 7.47729e-008 1.60341e-006 9.49812 -8.0882 0.510567 164.15 66.7702 -159.547 16.6553 51.3805 -10.603 2.94028e-007 -6.59344e-008 -5.78068e-008 
